<svg xmlns="http://www.w3.org/2000/svg" viewBox="0 0 512 512" role="img" aria-label="Wicked Card Tracker favicon">
  <defs>
    <linearGradient id="border" x1="36" y1="420" x2="476" y2="74" gradientUnits="userSpaceOnUse">
      <stop stop-color="#35ff70"/>
      <stop offset="0.48" stop-color="#16f4e8"/>
      <stop offset="1" stop-color="#3768ff"/>
    </linearGradient>
    <linearGradient id="wfill" x1="118" y1="164" x2="398" y2="373" gradientUnits="userSpaceOnUse">
      <stop stop-color="#c7ff32"/>
      <stop offset="0.35" stop-color="#15f78c"/>
      <stop offset="0.66" stop-color="#16e6ff"/>
      <stop offset="1" stop-color="#a827ff"/>
    </linearGradient>
    <linearGradient id="cardStroke" x1="119" y1="125" x2="393" y2="386" gradientUnits="userSpaceOnUse">
      <stop stop-color="#38ff87"/>
      <stop offset="0.55" stop-color="#13e7ff"/>
      <stop offset="1" stop-color="#3a63ff"/>
    </linearGradient>
    <filter id="greenGlow" x="-35%" y="-35%" width="170%" height="170%">
      <feGaussianBlur stdDeviation="7" result="blur"/>
      <feColorMatrix in="blur" values="0 0 0 0 0.05 0 0 0 0 1 0 0 0 0 0.55 0 0 0 0.9 0" result="glow"/>
      <feMerge><feMergeNode in="glow"/><feMergeNode in="SourceGraphic"/></feMerge>
    </filter>
    <filter id="blueGlow" x="-35%" y="-35%" width="170%" height="170%">
      <feGaussianBlur stdDeviation="7" result="blur"/>
      <feColorMatrix in="blur" values="0 0 0 0 0.1 0 0 0 0 0.75 0 0 0 0 1 0 0 0 0.95 0" result="glow"/>
      <feMerge><feMergeNode in="glow"/><feMergeNode in="SourceGraphic"/></feMerge>
    </filter>
    <filter id="shadow" x="-30%" y="-30%" width="160%" height="160%">
      <feDropShadow dx="0" dy="14" stdDeviation="14" flood-color="#000" flood-opacity="0.7"/>
    </filter>
  </defs>

  <rect width="512" height="512" rx="86" fill="#030914"/>
  <rect x="22" y="22" width="468" height="468" rx="78" fill="none" stroke="url(#border)" stroke-width="16" filter="url(#greenGlow)"/>

  <g filter="url(#shadow)">
    <rect x="105" y="131" width="196" height="279" rx="20" transform="rotate(-13 203 270)" fill="#071524" stroke="#22ff83" stroke-width="13" filter="url(#greenGlow)"/>
    <rect x="211" y="105" width="202" height="303" rx="22" transform="rotate(12 312 256)" fill="#071321" stroke="#267eff" stroke-width="13" filter="url(#blueGlow)"/>
    <rect x="146" y="75" width="220" height="342" rx="26" transform="rotate(-3 256 246)" fill="#081727" stroke="url(#cardStroke)" stroke-width="14" filter="url(#blueGlow)"/>
    <rect x="171" y="103" width="170" height="288" rx="20" transform="rotate(-3 256 246)" fill="none" stroke="#14365b" stroke-width="5" opacity="0.9"/>
  </g>

  <path d="M72 304h84l-22-148h99l32 146 46-146h88l-25 148h67l-73 75h-84l18-111-42 111h-61l-40-111 18 111H143L72 304Z" fill="#061018" stroke="#0ff2d8" stroke-width="12" filter="url(#blueGlow)"/>
  <path d="M92 303h75l-20-133h72l39 178 58-178h66l-24 133h62l-58 60h-59l26-161-61 161h-39l-59-160 25 160h-46l-57-60Z" fill="url(#wfill)" stroke="#e8fff2" stroke-width="8" stroke-linejoin="round" filter="url(#greenGlow)"/>
  <path d="M116 300h58l-16-102h20l39 108 14 38-45-44H92Z" fill="#c7ff36" opacity="0.36"/>
  <path d="M291 192h74l-16 97 70 14h-62l-52 47 24-149-41 109Z" fill="#2ac9ff" opacity="0.32"/>
</svg>
